<svg width="49" height="56" viewBox="0 0 49 56" fill="none" xmlns="http://www.w3.org/2000/svg">
<path fill-rule="evenodd" clip-rule="evenodd" d="M23.3632 0.150239L1.2074 12.161L25.8082 26.4237C26.0195 26.5438 26.2911 26.814 26.2911 27.0843V48.073C26.2911 48.3733 26.0195 48.5535 25.9893 48.5835L24.5102 49.3942C24.2687 49.5143 23.9367 49.5443 23.6047 49.3642L22.3067 48.6435C22.1256 48.5535 21.9445 48.2832 21.9445 48.013V29.4264C21.9445 29.0961 21.5823 28.946 21.3408 28.7958L0 16.4248V41.2569C0 41.7974 0.54333 42.428 0.96592 42.6982L23.1821 55.7299C23.9065 56.1502 24.3291 56.0902 25.295 55.5797L47.2395 42.6982C47.7527 42.398 48.2356 41.8275 48.2356 41.2269V16.4248L33.5054 24.9824C33.3242 25.1025 32.9922 25.1325 32.7809 25.0124L31.4528 24.2317C31.1811 24.0816 30.9396 23.7813 30.9396 23.451L30.9094 21.8897C30.9094 21.6494 31.0604 21.3492 31.2717 21.2291L47.0282 12.1009L24.8423 0.0901852C24.5404 -0.029922 23.7254 -0.0599488 23.3632 0.150239Z" fill="white"/>
</svg>
