<svg width="126" height="293" viewBox="0 0 126 293" fill="none" xmlns="http://www.w3.org/2000/svg">
<g opacity="0.3">
<path fill-rule="evenodd" clip-rule="evenodd" d="M96.5294 183.303L53.3529 206.89L101.294 234.9C101.706 235.136 102.235 235.667 102.235 236.197V277.416C102.235 278.006 101.706 278.36 101.647 278.419L98.7647 280.011C98.2941 280.247 97.6471 280.306 97 279.952L94.4706 278.537C94.1176 278.36 93.7647 277.829 93.7647 277.298V240.797C93.7647 240.148 93.0588 239.853 92.5882 239.559L51 215.264V264.03C51 265.092 52.0588 266.33 52.8824 266.861L96.1765 292.453C97.5882 293.279 98.4118 293.161 100.294 292.158L143.059 266.861C144.059 266.271 145 265.151 145 263.971V215.264L116.294 232.07C115.941 232.305 115.294 232.364 114.882 232.129L112.294 230.595C111.765 230.301 111.294 229.711 111.294 229.062L111.235 225.996C111.235 225.524 111.529 224.934 111.941 224.699L142.647 206.772L99.4118 183.185C98.8235 182.949 97.2353 182.89 96.5294 183.303Z" fill="white"/>
<path fill-rule="evenodd" clip-rule="evenodd" d="M45.5294 92.3027L2.35294 115.89L50.2941 143.9C50.7059 144.136 51.2353 144.667 51.2353 145.197V186.416C51.2353 187.006 50.7059 187.36 50.6471 187.419L47.7647 189.011C47.2941 189.247 46.6471 189.306 46 188.952L43.4706 187.537C43.1176 187.36 42.7647 186.829 42.7647 186.298V149.797C42.7647 149.148 42.0588 148.853 41.5882 148.559L0 124.264V173.03C0 174.092 1.05882 175.33 1.88235 175.861L45.1765 201.453C46.5882 202.279 47.4118 202.161 49.2941 201.158L92.0588 175.861C93.0588 175.271 94 174.151 94 172.971V124.264L65.2941 141.07C64.9412 141.305 64.2941 141.364 63.8823 141.129L61.2941 139.595C60.7647 139.301 60.2941 138.711 60.2941 138.062L60.2353 134.996C60.2353 134.524 60.5294 133.934 60.9412 133.699L91.6471 115.772L48.4118 92.1848C47.8235 91.9489 46.2353 91.8899 45.5294 92.3027Z" fill="white"/>
<path fill-rule="evenodd" clip-rule="evenodd" d="M147.529 92.3027L104.353 115.89L152.294 143.9C152.706 144.136 153.235 144.667 153.235 145.197V186.416C153.235 187.006 152.706 187.36 152.647 187.419L149.765 189.011C149.294 189.247 148.647 189.306 148 188.952L145.471 187.537C145.118 187.36 144.765 186.829 144.765 186.298V149.797C144.765 149.148 144.059 148.853 143.588 148.559L102 124.264V173.03C102 174.092 103.059 175.33 103.882 175.861L147.176 201.453C148.588 202.279 149.412 202.161 151.294 201.158L194.059 175.861C195.059 175.271 196 174.151 196 172.971V124.264L167.294 141.07C166.941 141.305 166.294 141.364 165.882 141.129L163.294 139.595C162.765 139.301 162.294 138.711 162.294 138.062L162.235 134.996C162.235 134.524 162.529 133.934 162.941 133.699L193.647 115.772L150.412 92.1848C149.824 91.9489 148.235 91.8899 147.529 92.3027Z" fill="white"/>
<path fill-rule="evenodd" clip-rule="evenodd" d="M96.5294 0.302719L53.3529 23.8901L101.294 51.9001C101.706 52.1359 102.235 52.6666 102.235 53.1974V94.4163C102.235 95.0059 101.706 95.3597 101.647 95.4187L98.7647 97.0109C98.2941 97.2467 97.6471 97.3057 97 96.9519L94.4706 95.5366C94.1176 95.3597 93.7647 94.829 93.7647 94.2983V57.7969C93.7647 57.1482 93.0588 56.8534 92.5882 56.5586L51 32.2636V81.0304C51 82.0919 52.0588 83.3302 52.8824 83.8609L96.1765 109.453C97.5882 110.279 98.4118 110.161 100.294 109.158L143.059 83.8609C144.059 83.2712 145 82.1508 145 80.9715V32.2636L116.294 49.0696C115.941 49.3054 115.294 49.3644 114.882 49.1285L112.294 47.5954C111.765 47.3005 111.294 46.7108 111.294 46.0622L111.235 42.9958C111.235 42.5241 111.529 41.9344 111.941 41.6985L142.647 23.7721L99.4118 0.184782C98.8235 -0.0510912 97.2353 -0.11006 96.5294 0.302719Z" fill="white"/>
</g>
</svg>
