<svg width="281" height="1664" viewBox="0 0 281 1664" fill="none" xmlns="http://www.w3.org/2000/svg">
<path d="M88.6208 2.33652L88.6464 2.3227L88.6715 2.30815C88.8871 2.18312 89.5561 2.01385 90.5545 2.0008C91.4315 1.98933 92.1215 2.10188 92.4024 2.18522L172.375 45.4423L116.356 77.8672C116.354 77.8688 116.351 77.8704 116.348 77.872C115.538 78.335 114.965 79.056 114.603 79.733C114.237 80.4183 113.985 81.2466 113.985 82.0829V82.1023L113.985 82.1216L114.098 87.9589C114.108 90.1236 115.608 91.8044 117.031 92.6004L121.995 95.5154L122.007 95.5228L122.02 95.5299C122.843 95.9972 123.764 96.1122 124.523 96.0691C125.258 96.0273 126.079 95.824 126.771 95.3839L179 65.0675V154.582C179 155.826 177.873 157.424 176.253 158.372L176.25 158.373L93.9446 206.645C92.172 207.579 91.1922 207.929 90.4482 207.99C89.8207 208.042 89.1619 207.904 87.9967 207.229C87.9951 207.228 87.9935 207.227 87.9919 207.226L4.67216 158.394C4.11133 158.029 3.39828 157.372 2.8337 156.598C2.2333 155.774 2 155.094 2 154.694V65.0637L79.0519 109.691C79.1846 109.773 79.3177 109.851 79.4353 109.919C79.4661 109.937 79.4957 109.954 79.5244 109.97C79.6204 110.026 79.7065 110.076 79.7948 110.128C80.0241 110.264 80.1814 110.368 80.2954 110.46C80.3147 110.476 80.331 110.49 80.3448 110.502V180.024C80.3448 180.963 80.6525 181.822 81.0574 182.493C81.4424 183.131 82.0204 183.77 82.7652 184.154L87.6043 186.839L87.6127 186.844L87.6213 186.848C89.4858 187.859 91.4219 187.709 92.8625 186.994L92.8982 186.976L92.9331 186.957L98.4832 183.917L98.7316 183.781L98.8747 183.639C98.9168 183.605 98.9825 183.551 99.058 183.485C99.2215 183.344 99.4441 183.135 99.6694 182.864C100.11 182.334 100.655 181.445 100.655 180.249V101.559C100.655 100.404 100.095 99.4596 99.5994 98.849C99.0847 98.2146 98.4408 97.6908 97.8386 97.3474C97.8359 97.3458 97.8333 97.3443 97.8306 97.3428L8.62186 45.6669L88.6208 2.33652Z" stroke="#DC0032" stroke-width="4"/>
<path d="M88.6208 550.337L88.6464 550.323L88.6715 550.308C88.8871 550.183 89.5561 550.014 90.5545 550.001C91.4315 549.989 92.1215 550.102 92.4024 550.185L172.375 593.442L116.356 625.867C116.354 625.869 116.351 625.87 116.348 625.872C115.538 626.335 114.965 627.056 114.603 627.733C114.237 628.418 113.985 629.247 113.985 630.083V630.102L113.985 630.122L114.098 635.959C114.108 638.124 115.608 639.804 117.031 640.6L121.995 643.515L122.007 643.523L122.02 643.53C122.843 643.997 123.764 644.112 124.523 644.069C125.258 644.027 126.079 643.824 126.771 643.384L179 613.068V702.582C179 703.826 177.873 705.424 176.253 706.372L176.25 706.373L93.9446 754.645C92.172 755.579 91.1922 755.929 90.4482 755.99C89.8207 756.042 89.1619 755.904 87.9967 755.229C87.9951 755.228 87.9935 755.227 87.9919 755.226L4.67216 706.394C4.11133 706.029 3.39828 705.372 2.8337 704.598C2.2333 703.774 2 703.094 2 702.694V613.064L79.0519 657.691C79.1846 657.773 79.3177 657.851 79.4353 657.919C79.4661 657.937 79.4957 657.954 79.5244 657.97C79.6204 658.026 79.7065 658.076 79.7948 658.128C80.0241 658.264 80.1814 658.368 80.2954 658.46C80.3147 658.476 80.331 658.49 80.3448 658.502V728.024C80.3448 728.963 80.6525 729.822 81.0574 730.493C81.4424 731.131 82.0204 731.77 82.7652 732.154L87.6043 734.839L87.6127 734.844L87.6213 734.848C89.4858 735.859 91.4219 735.709 92.8625 734.994L92.8982 734.976L92.9331 734.957L98.4832 731.917L98.7316 731.781L98.8747 731.639C98.9168 731.605 98.9825 731.551 99.058 731.485C99.2215 731.344 99.4441 731.135 99.6694 730.864C100.11 730.334 100.655 729.445 100.655 728.249V649.559C100.655 648.404 100.095 647.46 99.5994 646.849C99.0847 646.215 98.4408 645.691 97.8386 645.347C97.8359 645.346 97.8333 645.344 97.8306 645.343L8.62186 593.667L88.6208 550.337Z" stroke="#DC0032" stroke-width="4"/>
<path d="M88.6208 1098.34L88.6464 1098.32L88.6715 1098.31C88.8871 1098.18 89.5561 1098.01 90.5545 1098C91.4315 1097.99 92.1215 1098.1 92.4024 1098.19L172.375 1141.44L116.356 1173.87C116.354 1173.87 116.351 1173.87 116.348 1173.87C115.538 1174.34 114.965 1175.06 114.603 1175.73C114.237 1176.42 113.985 1177.25 113.985 1178.08V1178.1L113.985 1178.12L114.098 1183.96C114.108 1186.12 115.608 1187.8 117.031 1188.6L121.995 1191.52L122.007 1191.52L122.02 1191.53C122.843 1192 123.764 1192.11 124.523 1192.07C125.258 1192.03 126.079 1191.82 126.771 1191.38L179 1161.07V1250.58C179 1251.83 177.873 1253.42 176.253 1254.37L176.25 1254.37L93.9446 1302.65C92.172 1303.58 91.1922 1303.93 90.4482 1303.99C89.8207 1304.04 89.1619 1303.9 87.9967 1303.23C87.9951 1303.23 87.9935 1303.23 87.9919 1303.23L4.67216 1254.39C4.11133 1254.03 3.39828 1253.37 2.8337 1252.6C2.2333 1251.77 2 1251.09 2 1250.69V1161.06L79.0519 1205.69C79.1846 1205.77 79.3177 1205.85 79.4353 1205.92C79.4661 1205.94 79.4957 1205.95 79.5244 1205.97C79.6204 1206.03 79.7065 1206.08 79.7948 1206.13C80.0241 1206.26 80.1814 1206.37 80.2954 1206.46C80.3147 1206.48 80.331 1206.49 80.3448 1206.5V1276.02C80.3448 1276.96 80.6525 1277.82 81.0574 1278.49C81.4424 1279.13 82.0204 1279.77 82.7652 1280.15L87.6043 1282.84L87.6127 1282.84L87.6213 1282.85C89.4858 1283.86 91.4219 1283.71 92.8625 1282.99L92.8982 1282.98L92.9331 1282.96L98.4832 1279.92L98.7316 1279.78L98.8747 1279.64C98.9168 1279.6 98.9825 1279.55 99.058 1279.49C99.2215 1279.34 99.4441 1279.14 99.6694 1278.86C100.11 1278.33 100.655 1277.44 100.655 1276.25V1197.56C100.655 1196.4 100.095 1195.46 99.5994 1194.85C99.0847 1194.21 98.4408 1193.69 97.8386 1193.35C97.8359 1193.35 97.8333 1193.34 97.8306 1193.34L8.62186 1141.67L88.6208 1098.34Z" stroke="#DC0032" stroke-width="4"/>
<path d="M224.621 159.337L224.646 159.323L224.671 159.308C224.887 159.183 225.556 159.014 226.554 159.001C227.432 158.989 228.121 159.102 228.402 159.185L308.375 202.442L252.356 234.867C252.354 234.869 252.351 234.87 252.348 234.872C251.538 235.335 250.965 236.056 250.603 236.733C250.237 237.418 249.985 238.247 249.985 239.083V239.102L249.985 239.122L250.098 244.959C250.108 247.124 251.608 248.804 253.031 249.6L257.995 252.515L258.007 252.523L258.02 252.53C258.843 252.997 259.764 253.112 260.523 253.069C261.258 253.027 262.079 252.824 262.771 252.384L315 222.068V311.582C315 312.826 313.873 314.424 312.253 315.372L312.25 315.373L229.945 363.645C228.172 364.579 227.192 364.929 226.448 364.99C225.821 365.042 225.162 364.904 223.997 364.229C223.995 364.228 223.993 364.227 223.992 364.226L140.672 315.394C140.111 315.029 139.398 314.372 138.834 313.598C138.233 312.774 138 312.094 138 311.694V222.064L215.052 266.691C215.185 266.773 215.318 266.851 215.435 266.919C215.466 266.937 215.496 266.954 215.524 266.97C215.62 267.026 215.707 267.076 215.795 267.128C216.024 267.264 216.181 267.368 216.295 267.46C216.315 267.476 216.331 267.49 216.345 267.502V337.024C216.345 337.963 216.652 338.822 217.057 339.493C217.442 340.131 218.02 340.77 218.765 341.154L223.604 343.839L223.613 343.844L223.621 343.848C225.486 344.859 227.422 344.709 228.863 343.994L228.898 343.976L228.933 343.957L234.483 340.917L234.732 340.781L234.875 340.639C234.917 340.605 234.983 340.551 235.058 340.485C235.222 340.344 235.444 340.135 235.669 339.864C236.11 339.334 236.655 338.445 236.655 337.249V258.559C236.655 257.404 236.095 256.46 235.599 255.849C235.085 255.215 234.441 254.691 233.839 254.347C233.836 254.346 233.833 254.344 233.831 254.343L144.622 202.667L224.621 159.337Z" stroke="#DC0032" stroke-width="4"/>
<path d="M224.621 707.337L224.646 707.323L224.671 707.308C224.887 707.183 225.556 707.014 226.554 707.001C227.432 706.989 228.121 707.102 228.402 707.185L308.375 750.442L252.356 782.867C252.354 782.869 252.351 782.87 252.348 782.872C251.538 783.335 250.965 784.056 250.603 784.733C250.237 785.418 249.985 786.247 249.985 787.083V787.102L249.985 787.122L250.098 792.959C250.108 795.124 251.608 796.804 253.031 797.6L257.995 800.515L258.007 800.523L258.02 800.53C258.843 800.997 259.764 801.112 260.523 801.069C261.258 801.027 262.079 800.824 262.771 800.384L315 770.068V859.582C315 860.826 313.873 862.424 312.253 863.372L312.25 863.373L229.945 911.645C228.172 912.579 227.192 912.929 226.448 912.99C225.821 913.042 225.162 912.904 223.997 912.229C223.995 912.228 223.993 912.227 223.992 912.226L140.672 863.394C140.111 863.029 139.398 862.372 138.834 861.598C138.233 860.774 138 860.094 138 859.694V770.064L215.052 814.691C215.185 814.773 215.318 814.851 215.435 814.919C215.466 814.937 215.496 814.954 215.524 814.97C215.62 815.026 215.707 815.076 215.795 815.128C216.024 815.264 216.181 815.368 216.295 815.46C216.315 815.476 216.331 815.49 216.345 815.502V885.024C216.345 885.963 216.652 886.822 217.057 887.493C217.442 888.131 218.02 888.77 218.765 889.154L223.604 891.839L223.613 891.844L223.621 891.848C225.486 892.859 227.422 892.709 228.863 891.994L228.898 891.976L228.933 891.957L234.483 888.917L234.732 888.781L234.875 888.639C234.917 888.605 234.983 888.551 235.058 888.485C235.222 888.344 235.444 888.135 235.669 887.864C236.11 887.334 236.655 886.445 236.655 885.249V806.559C236.655 805.404 236.095 804.46 235.599 803.849C235.085 803.215 234.441 802.691 233.839 802.347C233.836 802.346 233.833 802.344 233.831 802.343L144.622 750.667L224.621 707.337Z" stroke="#DC0032" stroke-width="4"/>
<path d="M224.621 1255.34L224.646 1255.32L224.671 1255.31C224.887 1255.18 225.556 1255.01 226.554 1255C227.432 1254.99 228.121 1255.1 228.402 1255.19L308.375 1298.44L252.356 1330.87C252.354 1330.87 252.351 1330.87 252.348 1330.87C251.538 1331.34 250.965 1332.06 250.603 1332.73C250.237 1333.42 249.985 1334.25 249.985 1335.08V1335.1L249.985 1335.12L250.098 1340.96C250.108 1343.12 251.608 1344.8 253.031 1345.6L257.995 1348.52L258.007 1348.52L258.02 1348.53C258.843 1349 259.764 1349.11 260.523 1349.07C261.258 1349.03 262.079 1348.82 262.771 1348.38L315 1318.07V1407.58C315 1408.83 313.873 1410.42 312.253 1411.37L312.25 1411.37L229.945 1459.65C228.172 1460.58 227.192 1460.93 226.448 1460.99C225.821 1461.04 225.162 1460.9 223.997 1460.23C223.995 1460.23 223.993 1460.23 223.992 1460.23L140.672 1411.39C140.111 1411.03 139.398 1410.37 138.834 1409.6C138.233 1408.77 138 1408.09 138 1407.69V1318.06L215.052 1362.69C215.185 1362.77 215.318 1362.85 215.435 1362.92C215.466 1362.94 215.496 1362.95 215.524 1362.97C215.62 1363.03 215.707 1363.08 215.795 1363.13C216.024 1363.26 216.181 1363.37 216.295 1363.46C216.315 1363.48 216.331 1363.49 216.345 1363.5V1433.02C216.345 1433.96 216.652 1434.82 217.057 1435.49C217.442 1436.13 218.02 1436.77 218.765 1437.15L223.604 1439.84L223.613 1439.84L223.621 1439.85C225.486 1440.86 227.422 1440.71 228.863 1439.99L228.898 1439.98L228.933 1439.96L234.483 1436.92L234.732 1436.78L234.875 1436.64C234.917 1436.6 234.983 1436.55 235.058 1436.49C235.222 1436.34 235.444 1436.14 235.669 1435.86C236.11 1435.33 236.655 1434.44 236.655 1433.25V1354.56C236.655 1353.4 236.095 1352.46 235.599 1351.85C235.085 1351.21 234.441 1350.69 233.839 1350.35C233.836 1350.35 233.833 1350.34 233.831 1350.34L144.622 1298.67L224.621 1255.34Z" stroke="#DC0032" stroke-width="4"/>
<path d="M164.621 360.337L164.646 360.323L164.671 360.308C164.887 360.183 165.556 360.014 166.554 360.001C167.432 359.989 168.121 360.102 168.402 360.185L248.375 403.442L192.356 435.867C192.354 435.869 192.351 435.87 192.348 435.872C191.538 436.335 190.965 437.056 190.603 437.733C190.237 438.418 189.985 439.247 189.985 440.083V440.102L189.985 440.122L190.098 445.959C190.108 448.124 191.608 449.804 193.031 450.6L197.995 453.515L198.007 453.523L198.02 453.53C198.843 453.997 199.764 454.112 200.523 454.069C201.258 454.027 202.079 453.824 202.771 453.384L255 423.068V512.582C255 513.826 253.873 515.424 252.253 516.372L252.25 516.373L169.945 564.645C168.172 565.579 167.192 565.929 166.448 565.99C165.821 566.042 165.162 565.904 163.997 565.229C163.995 565.228 163.993 565.227 163.992 565.226L80.6722 516.394C80.1113 516.029 79.3983 515.372 78.8337 514.598C78.2333 513.774 78 513.094 78 512.694V423.064L155.052 467.691C155.185 467.773 155.318 467.851 155.435 467.919C155.466 467.937 155.496 467.954 155.524 467.97C155.62 468.026 155.707 468.076 155.795 468.128C156.024 468.264 156.181 468.368 156.295 468.46C156.315 468.476 156.331 468.49 156.345 468.502V538.024C156.345 538.963 156.652 539.822 157.057 540.493C157.442 541.131 158.02 541.77 158.765 542.154L163.604 544.839L163.613 544.844L163.621 544.848C165.486 545.859 167.422 545.709 168.863 544.994L168.898 544.976L168.933 544.957L174.483 541.917L174.732 541.781L174.875 541.639C174.917 541.605 174.983 541.551 175.058 541.485C175.222 541.344 175.444 541.135 175.669 540.864C176.11 540.334 176.655 539.445 176.655 538.249V459.559C176.655 458.404 176.095 457.46 175.599 456.849C175.085 456.215 174.441 455.691 173.839 455.347C173.836 455.346 173.833 455.344 173.831 455.343L84.6219 403.667L164.621 360.337Z" stroke="#DC0032" stroke-width="4"/>
<path d="M164.621 908.337L164.646 908.323L164.671 908.308C164.887 908.183 165.556 908.014 166.554 908.001C167.432 907.989 168.121 908.102 168.402 908.185L248.375 951.442L192.356 983.867C192.354 983.869 192.351 983.87 192.348 983.872C191.538 984.335 190.965 985.056 190.603 985.733C190.237 986.418 189.985 987.247 189.985 988.083V988.102L189.985 988.122L190.098 993.959C190.108 996.124 191.608 997.804 193.031 998.6L197.995 1001.52L198.007 1001.52L198.02 1001.53C198.843 1002 199.764 1002.11 200.523 1002.07C201.258 1002.03 202.079 1001.82 202.771 1001.38L255 971.068V1060.58C255 1061.83 253.873 1063.42 252.253 1064.37L252.25 1064.37L169.945 1112.65C168.172 1113.58 167.192 1113.93 166.448 1113.99C165.821 1114.04 165.162 1113.9 163.997 1113.23C163.995 1113.23 163.993 1113.23 163.992 1113.23L80.6722 1064.39C80.1113 1064.03 79.3983 1063.37 78.8337 1062.6C78.2333 1061.77 78 1061.09 78 1060.69V971.064L155.052 1015.69C155.185 1015.77 155.318 1015.85 155.435 1015.92C155.466 1015.94 155.496 1015.95 155.524 1015.97C155.62 1016.03 155.707 1016.08 155.795 1016.13C156.024 1016.26 156.181 1016.37 156.295 1016.46C156.315 1016.48 156.331 1016.49 156.345 1016.5V1086.02C156.345 1086.96 156.652 1087.82 157.057 1088.49C157.442 1089.13 158.02 1089.77 158.765 1090.15L163.604 1092.84L163.613 1092.84L163.621 1092.85C165.486 1093.86 167.422 1093.71 168.863 1092.99L168.898 1092.98L168.933 1092.96L174.483 1089.92L174.732 1089.78L174.875 1089.64C174.917 1089.6 174.983 1089.55 175.058 1089.49C175.222 1089.34 175.444 1089.14 175.669 1088.86C176.11 1088.33 176.655 1087.44 176.655 1086.25V1007.56C176.655 1006.4 176.095 1005.46 175.599 1004.85C175.085 1004.21 174.441 1003.69 173.839 1003.35C173.836 1003.35 173.833 1003.34 173.831 1003.34L84.6219 951.667L164.621 908.337Z" stroke="#DC0032" stroke-width="4"/>
<path d="M164.621 1456.34L164.646 1456.32L164.671 1456.31C164.887 1456.18 165.556 1456.01 166.554 1456C167.432 1455.99 168.121 1456.1 168.402 1456.19L248.375 1499.44L192.356 1531.87C192.354 1531.87 192.351 1531.87 192.348 1531.87C191.538 1532.34 190.965 1533.06 190.603 1533.73C190.237 1534.42 189.985 1535.25 189.985 1536.08V1536.1L189.985 1536.12L190.098 1541.96C190.108 1544.12 191.608 1545.8 193.031 1546.6L197.995 1549.52L198.007 1549.52L198.02 1549.53C198.843 1550 199.764 1550.11 200.523 1550.07C201.258 1550.03 202.079 1549.82 202.771 1549.38L255 1519.07V1608.58C255 1609.83 253.873 1611.42 252.253 1612.37L252.25 1612.37L169.945 1660.65C168.172 1661.58 167.192 1661.93 166.448 1661.99C165.821 1662.04 165.162 1661.9 163.997 1661.23C163.995 1661.23 163.993 1661.23 163.992 1661.23L80.6722 1612.39C80.1113 1612.03 79.3983 1611.37 78.8337 1610.6C78.2333 1609.77 78 1609.09 78 1608.69V1519.06L155.052 1563.69C155.185 1563.77 155.318 1563.85 155.435 1563.92C155.466 1563.94 155.496 1563.95 155.524 1563.97C155.62 1564.03 155.707 1564.08 155.795 1564.13C156.024 1564.26 156.181 1564.37 156.295 1564.46C156.315 1564.48 156.331 1564.49 156.345 1564.5V1634.02C156.345 1634.96 156.652 1635.82 157.057 1636.49C157.442 1637.13 158.02 1637.77 158.765 1638.15L163.604 1640.84L163.613 1640.84L163.621 1640.85C165.486 1641.86 167.422 1641.71 168.863 1640.99L168.898 1640.98L168.933 1640.96L174.483 1637.92L174.732 1637.78L174.875 1637.64C174.917 1637.6 174.983 1637.55 175.058 1637.49C175.222 1637.34 175.444 1637.14 175.669 1636.86C176.11 1636.33 176.655 1635.44 176.655 1634.25V1555.56C176.655 1554.4 176.095 1553.46 175.599 1552.85C175.085 1552.21 174.441 1551.69 173.839 1551.35C173.836 1551.35 173.833 1551.34 173.831 1551.34L84.6219 1499.67L164.621 1456.34Z" stroke="#DC0032" stroke-width="4"/>
</svg>
